<?xml version="1.0" encoding="UTF-8" standalone="no"?>
<svg
   viewBox="78.96 236.502 352.08 28.996"
   width="352.07999"
   height="28.996"
   version="1.1"
   id="svg2"
   xmlns="http://www.w3.org/2000/svg"
   xmlns:svg="http://www.w3.org/2000/svg"
   xmlns:bx="https://boxy-svg.com">
  <defs
     id="defs1">
    <linearGradient
       id="color-0"
       bx:pinned="true"
       gradientUnits="userSpaceOnUse"
       gradientTransform="translate(-104.9038,6.125326)">
      <stop
         style="stop-color: rgb(27, 78, 160);"
         id="stop1" />
    </linearGradient>
    <bx:export>
      <bx:file
         format="svg"
         path="Brand water mark.svg" />
    </bx:export>
  </defs>
  <g
     transform="translate(58.75361,68.142771)"
     id="g2">
    <path
       d="m 41.731,184.693 q -0.367,-0.674 -1.099,-1.216 -0.733,-0.542 -1.648,-0.872 -0.916,-0.329 -1.912,-0.491 -2.959,-0.439 -5.522,-1.918 -0.22,-0.118 -0.469,-0.499 -0.249,-0.38 -0.249,-0.732 0,-1.289 0.432,-2.585 0.432,-1.297 1.106,-2.029 1.084,-1.216 3.904,-2.124 2.82,-0.908 6.35,-0.908 2.109,0 3.259,0.322 1.15,0.322 1.15,0.996 0,1.099 -0.3,1.699 -0.3,0.601 -0.645,0.798 -0.344,0.198 -1.208,0.535 -0.923,0.322 -1.604,0.674 -0.681,0.352 -1.165,0.674 -0.483,0.322 -0.6,0.322 -0.147,0 -0.147,-0.117 0,-0.249 0.52,-0.755 0.52,-0.505 1.282,-0.886 0.806,-0.425 0.806,-0.542 0,-0.19 -0.894,-0.19 -2.71,0 -5.01,0.483 -2.299,0.484 -3.625,1.275 -1.326,0.791 -1.326,1.611 0,0.513 0.55,0.725 0.549,0.212 2.424,0.711 1.875,0.498 3.354,1.142 2.124,0.908 3.15,1.89 1.025,0.981 1.025,2.197 0,0.835 -0.403,1.677 -0.403,0.843 -1.179,1.546 -0.776,0.703 -1.787,1.157 -0.864,0.366 -2.175,0.688 -1.311,0.323 -2.842,0.506 -1.531,0.183 -2.922,0.183 -2.564,0 -4.124,-0.484 -1.56,-0.483 -1.56,-1.464 0,-0.44 0.527,-1.37 0.528,-0.93 1.245,-1.252 0.63,-0.249 1.216,-0.286 0.586,-0.037 0.586,0.139 0,0.044 -0.044,0.088 -0.044,0.044 -0.102,0.073 -0.059,0.029 -0.117,0.059 -0.293,0.117 -0.477,0.183 -0.183,0.066 -0.293,0.132 -0.109,0.066 -0.109,0.183 0,0.307 3.032,0.307 2.637,0 4.321,-0.19 1.685,-0.19 2.974,-0.688 1.289,-0.498 2.344,-1.377 z m 4.068,0.747 v -0.952 q 0.791,-0.938 1.201,-1.597 -0.469,-0.161 -0.681,-0.396 -0.212,-0.234 -0.212,-0.703 0,-0.527 0.439,-1.333 0.439,-0.805 1.084,-1.509 0.645,-0.703 1.172,-0.908 0.205,-0.102 0.395,-0.102 0.293,0 0.293,0.278 0,0.249 -0.454,1.011 3.018,-0.469 3.809,-0.469 0.307,0 0.425,0.059 0.249,0.131 0.41,0.615 0.161,0.483 0.161,0.967 0,0.307 -0.271,0.666 -0.271,0.359 -0.93,1.047 -0.777,0.835 -1.304,1.817 -0.527,0.981 -0.527,1.479 0,0.689 0.849,0.689 0.894,0 3.106,-1.817 v 0.982 q -1.216,1.274 -2.007,2.007 -0.791,0.732 -1.465,1.164 -0.674,0.432 -1.201,0.432 -0.615,0 -1.025,-0.564 -0.411,-0.564 -0.411,-1.633 0,-0.63 0.323,-1.435 0.322,-0.806 0.945,-1.751 0.622,-0.945 1.398,-1.882 -0.41,0.088 -0.922,0.183 -0.513,0.095 -1.084,0.198 -0.572,0.102 -0.879,0.161 -0.909,1.816 -2.637,3.296 z m 14.911,-7.676 q -0.367,0 -0.696,-0.278 -0.33,-0.279 -0.33,-0.704 0,-0.644 0.615,-1.435 0.616,-0.791 1.275,-0.791 0.439,0 0.732,0.271 0.293,0.271 0.293,0.784 0,0.629 -0.6,1.391 -0.601,0.762 -1.289,0.762 z m 0.996,6.548 v 1.069 q -1.421,1.831 -2.652,2.761 -1.23,0.93 -2.094,0.93 -1.202,0 -1.787,-1.259 -0.586,-1.26 -0.586,-2.754 0,-0.571 0.117,-1.092 0.117,-0.52 0.278,-0.856 0.161,-0.337 0.601,-1.055 2.08,-3.237 3.808,-3.237 0.894,0 0.894,0.688 0,0.469 -0.579,1.465 -0.578,0.996 -1.032,1.421 -1.275,1.23 -1.663,1.714 -0.388,0.483 -0.388,1.098 0,0.528 0.395,0.879 0.396,0.352 1.026,0.352 0.688,0 1.516,-0.506 0.827,-0.505 2.146,-1.618 z m 23.794,-6.49 0.454,0.455 q -1.201,1.508 -2.102,2.197 -0.901,0.688 -1.326,0.688 -0.351,0 -0.351,-0.63 0,-1.567 2.065,-4.834 1.744,-2.827 1.744,-3.149 0,-0.278 -0.235,-0.278 -0.41,0 -2.065,1.845 -1.656,1.846 -4.087,5.215 -2.754,3.75 -3.779,5.362 1.948,0.19 3.2,0.49 1.253,0.301 3.633,0.974 2.38,0.674 3.508,0.791 -1.377,1.568 -1.897,2.132 -0.52,0.564 -0.798,0.681 -0.439,0.19 -1.304,0.022 -0.864,-0.169 -2.739,-0.652 -1.875,-0.483 -3.508,-0.806 -1.634,-0.322 -2.981,-0.322 -0.762,0 -1.311,0.176 -0.55,0.176 -1.524,0.579 -0.974,0.402 -1.369,0.402 -0.572,0 -0.572,-0.468 0,-0.264 0.191,-0.601 0.483,-0.776 0.937,-1.479 0.454,-0.704 0.967,-1.099 0.513,-0.396 1.48,-0.615 0.966,-0.22 2.548,-0.235 2.388,-3.662 4.454,-6.496 2.065,-2.835 3.757,-4.783 1.692,-1.948 2.966,-2.952 1.275,-1.003 2.022,-1.003 0.527,0 0.82,0.293 0.293,0.293 0.293,0.82 0,1.758 -3.091,7.28 z m 4.031,3.868 q 2.226,-2.022 4.321,-3.003 2.095,-0.982 3.237,-0.982 0.308,0 0.572,0.257 0.263,0.256 0.417,0.593 0.154,0.337 0.154,0.498 0,0.264 -0.205,0.388 -0.205,0.125 -0.718,0.3 0.103,0.235 0.264,0.601 0.161,0.366 0.249,0.593 0.088,0.227 0.088,0.403 0,0.352 -0.711,1.311 -0.71,0.96 -0.996,1.414 -0.286,0.454 -0.286,1.113 0,1.084 0.997,1.084 1.025,0 3.208,-1.919 v 0.894 q -3.706,4.116 -5.303,4.116 -0.571,0 -0.813,-0.374 -0.242,-0.373 -0.242,-1.106 0,-1.157 0.835,-3.354 -2.139,2.373 -3.179,3.376 -1.04,1.004 -1.713,1.004 -0.323,0 -0.806,-0.557 -0.484,-0.557 -0.857,-1.443 -0.374,-0.886 -0.374,-1.838 0,-0.689 0.132,-1.15 0.132,-0.462 0.513,-0.945 0.381,-0.483 1.216,-1.274 z m 7.016,-1.612 q -3.808,1.744 -5.427,2.959 -1.619,1.216 -1.619,2.505 0,0.469 0.162,0.769 0.161,0.301 0.439,0.301 0.161,0 0.571,-0.206 1.538,-0.908 2.813,-2.365 1.274,-1.458 3.061,-3.963 z m 14.488,4.234 v 0.981 q -1.641,1.919 -2.754,2.908 -1.113,0.989 -1.86,0.989 -0.718,0 -1.297,-0.425 -0.578,-0.425 -1.04,-1.172 -0.461,-0.747 -1.091,-2.08 -0.747,0.923 -1.348,1.721 -0.6,0.798 -0.835,1.062 -0.234,0.264 -0.425,0.264 -0.395,0 -0.571,-0.506 -0.176,-0.505 -0.176,-1.472 0,-1.318 0.315,-2.541 0.315,-1.223 0.909,-2.381 0.593,-1.157 1.523,-2.497 0.93,-1.341 2.087,-2.805 1.597,-2.022 2.754,-3.304 1.157,-1.281 2.014,-1.933 0.857,-0.652 1.429,-0.652 0.703,0 0.703,0.63 0,0.542 -2.593,3.904 -2.593,3.361 -7.559,9.177 v 1.26 q 3.326,-3.56 5.354,-5.288 2.029,-1.729 3.143,-1.729 0.454,0 0.703,0.535 0.249,0.534 0.249,1.238 0,1.435 -1.231,2.658 -1.23,1.223 -3.779,2.805 0.439,0.66 0.776,0.96 0.337,0.3 0.85,0.3 0.454,0 0.981,-0.307 0.528,-0.308 1.077,-0.777 0.549,-0.469 1.692,-1.523 z m -5.786,0.747 q 0.556,-0.366 1.384,-1.135 0.828,-0.769 1.414,-1.597 0.586,-0.828 0.586,-1.384 0,-0.235 -0.206,-0.235 -0.556,0 -1.911,1.07 -1.355,1.069 -2.644,2.739 0.556,0 1.377,0.542 z m 5.63,-0.337 v -0.352 q 3.78,-3.984 5.2,-5.581 0.323,-1.801 1.553,-1.801 0.308,0 0.659,0.175 l 0.088,0.279 q -0.058,0.175 -0.058,0.498 0,0.278 0.212,1.032 0.212,0.755 0.33,1.267 0.117,0.513 0.117,1.158 0,0.966 -0.44,1.853 -0.439,0.886 -1.274,1.699 -0.835,0.813 -2.153,1.663 0.527,0.087 0.835,0.087 0.6,0 1.296,-0.3 0.696,-0.3 1.421,-0.806 0.725,-0.505 1.692,-1.311 v 0.982 q -1.875,1.831 -3.355,2.776 -1.479,0.945 -2.549,0.945 -1.376,0 -2.548,-1.172 -0.689,-0.703 -0.857,-1.348 -0.169,-0.644 -0.169,-1.743 z m 5.464,-2.241 -0.264,-2.139 q -0.908,1.025 -3.881,3.94 0.879,0.191 1.201,0.513 0.322,0.322 0.908,1.245 0.996,-0.41 1.531,-1.12 0.534,-0.711 0.534,-1.941 0,-0.147 -0.007,-0.264 -0.007,-0.117 -0.022,-0.234 z m 14.91,1.831 v 0.923 q -1.275,1.303 -2.205,2.131 -0.93,0.828 -1.626,1.252 -0.696,0.425 -1.179,0.425 -1.143,0 -1.143,-1.347 0,-1.084 0.711,-2.513 0.71,-1.428 2.043,-3.361 -0.659,0.366 -1.245,0.842 -0.586,0.476 -1.04,0.996 -0.454,0.52 -0.762,0.886 -0.952,1.069 -1.831,2.19 -0.879,1.121 -1.186,1.458 -0.308,0.336 -0.586,0.336 -1.143,0 -1.143,-2.812 0,-0.923 0.279,-2.036 0.278,-1.113 1.494,-2.944 2.563,-3.838 4.387,-6.277 1.824,-2.439 3.025,-3.692 1.201,-1.252 1.611,-1.223 0.513,0.044 0.828,0.205 0.315,0.161 0.315,0.366 0,0.367 -0.506,1.209 -0.505,0.842 -1.735,2.629 -1.333,1.89 -1.89,2.659 -0.557,0.769 -1.663,2.183 -1.106,1.413 -2.021,2.519 -0.916,1.106 -2.088,2.395 v 1.758 q 1.963,-2.183 3.399,-3.574 1.435,-1.392 2.432,-2.102 0.996,-0.711 1.464,-0.711 0.44,0 0.821,0.52 0.381,0.52 0.381,0.857 0,0.147 -0.147,0.366 -1.055,1.26 -1.677,2.088 -0.623,0.827 -0.96,1.479 -0.337,0.652 -0.337,1.121 0,0.688 0.66,0.688 0.703,0 3.12,-1.889 z m 6.694,2.007 q 2.021,-1.788 3.471,-3.113 1.451,-1.326 2.278,-2.088 0.828,-0.761 1.458,-1.289 0.63,-0.527 0.805,-0.527 0.337,-0.015 0.645,0.696 0.308,0.71 0.308,1.135 0,0.278 -0.931,1.311 -0.93,1.033 -1.391,1.648 -0.462,0.615 -0.462,1.289 0,0.396 0.264,0.637 0.264,0.242 0.63,0.242 0.425,0 1.018,-0.439 0.593,-0.44 1.868,-1.568 v 1.04 q -1.275,1.201 -2.315,2.073 -1.04,0.872 -1.809,1.304 -0.769,0.432 -1.282,0.432 -0.454,0 -0.761,-0.344 -0.308,-0.345 -0.308,-0.857 0,-0.498 0.176,-1.011 0.176,-0.513 0.542,-1.216 0.366,-0.703 0.967,-1.692 0.6,-0.989 1.098,-1.809 -1.494,1.216 -2.651,2.344 -1.157,1.128 -1.89,1.97 -0.732,0.842 -1.157,1.326 -0.82,0.908 -1.523,0.908 -0.762,0 -0.762,-1.084 0,-0.44 0.571,-1.575 0.571,-1.135 1.626,-2.893 0.088,-0.117 0.088,-0.366 0,-0.293 -0.293,-0.293 -0.322,0 -0.93,0.608 -0.608,0.608 -2.351,2.541 -0.484,0.542 -1.092,1.414 -0.607,0.872 -0.871,1.165 -0.264,0.292 -0.527,0.292 -0.528,0 -0.982,-0.937 -0.454,-0.938 -0.454,-2.183 0,-0.908 0.3,-1.567 0.301,-0.659 0.93,-1.641 0.982,-1.421 1.604,-2.028 0.623,-0.608 1.311,-0.608 0.425,0 0.718,0.168 0.293,0.169 0.293,0.462 0,0.307 -0.534,1.01 -0.535,0.703 -1.355,1.45 -0.44,0.425 -0.835,1.048 -0.396,0.622 -0.396,0.901 0,0.395 0.308,0.395 0.249,0 1.259,-1.025 1.011,-1.026 2.22,-2.234 1.208,-1.209 2.241,-2.007 1.033,-0.798 1.75,-0.798 0.44,0 0.726,0.329 0.285,0.33 0.285,0.813 0,0.323 -0.439,1.165 -0.44,0.842 -1.282,2.08 -0.842,1.238 -2.175,2.996 z m 15.863,-8.555 q -0.366,0 -0.695,-0.278 -0.33,-0.279 -0.33,-0.704 0,-0.644 0.615,-1.435 0.615,-0.791 1.275,-0.791 0.439,0 0.732,0.271 0.293,0.271 0.293,0.784 0,0.629 -0.601,1.391 -0.6,0.762 -1.289,0.762 z m 0.997,6.548 v 1.069 q -1.421,1.831 -2.652,2.761 -1.23,0.93 -2.095,0.93 -1.201,0 -1.787,-1.259 -0.586,-1.26 -0.586,-2.754 0,-0.571 0.118,-1.092 0.117,-0.52 0.278,-0.856 0.161,-0.337 0.6,-1.055 2.081,-3.237 3.809,-3.237 0.894,0 0.894,0.688 0,0.469 -0.579,1.465 -0.579,0.996 -1.033,1.421 -1.274,1.23 -1.662,1.714 -0.389,0.483 -0.389,1.098 0,0.528 0.396,0.879 0.396,0.352 1.025,0.352 0.689,0 1.517,-0.506 0.827,-0.505 2.146,-1.618 z m 19.364,-10.415 q 0.396,-0.103 0.798,-0.205 0.403,-0.103 0.821,-0.176 0.417,-0.073 0.813,-0.073 0.849,0 1.457,0.38 0.608,0.381 0.908,1.033 0.301,0.652 0.301,1.414 0,1.186 -0.432,2.717 -0.433,1.531 -1.238,3.113 -0.806,1.582 -1.89,2.988 -1.479,1.904 -3.552,3.069 -2.073,1.165 -3.801,1.165 -1.275,0 -2.249,-0.696 -0.974,-0.696 -1.523,-2.022 -0.55,-1.325 -0.55,-3.113 0,-2.402 1.311,-4.812 1.311,-2.409 3.311,-4.365 1.999,-1.955 4.036,-3.135 2.036,-1.179 3.31,-1.179 1.04,0 1.597,0.637 0.556,0.638 1.04,2.059 -1.362,0.043 -2.373,0.329 -1.011,0.286 -2.095,0.872 z m -3.691,2.973 q -1.026,1.099 -2.073,2.835 -1.047,1.736 -1.692,3.406 -0.644,1.669 -0.644,2.548 0,2.183 2.036,2.183 1.421,0 3.669,-1.919 2.249,-1.919 3.911,-4.622 1.663,-2.702 1.663,-4.914 0,-1.626 -1.289,-1.626 -0.996,0 -2.432,0.791 -1.435,0.791 -2.754,2.241 -0.469,0.528 -1.86,2.578 0.264,-1.377 1.465,-3.501 z m 17.971,7.442 v 1.01 q -0.879,0.879 -1.333,1.275 -0.454,0.395 -1.245,0.806 0,1.333 -0.132,2.27 -0.132,0.938 -0.586,1.97 -0.454,1.033 -1.406,2.263 -0.937,1.216 -1.846,1.868 -0.908,0.652 -1.421,0.652 -0.571,0 -1.054,-0.938 -0.484,-0.937 -0.484,-2.329 0,-1.333 0.455,-2.812 0.454,-1.48 1.406,-3.823 -0.718,-0.938 -0.718,-1.861 0,-0.747 0.381,-1.142 0.381,-0.396 1.084,-0.718 0.513,-0.806 0.974,-1.37 0.461,-0.564 1.252,-1.501 1.524,-3.75 3.575,-7.324 0.571,-0.996 0.82,-1.341 0.249,-0.344 0.527,-0.344 0.249,0 0.44,0.366 0.19,0.366 0.19,0.952 0,0.718 -0.154,1.319 -0.153,0.6 -0.439,1.208 -0.286,0.608 -0.791,1.458 -0.505,0.849 -0.623,1.054 -0.732,1.29 -1.655,2.857 -0.923,1.567 -1.457,2.476 -0.535,0.908 -0.77,1.362 0.791,0.688 1.253,1.186 0.461,0.498 0.798,1.187 0.498,-0.191 0.908,-0.454 0.411,-0.264 0.967,-0.725 0.557,-0.462 1.084,-0.857 z m -4.38,3.926 -0.029,-0.308 q -0.41,0.044 -0.659,0.022 -0.249,-0.022 -0.579,-0.125 -0.329,-0.102 -0.512,-0.19 -0.184,-0.088 -0.403,-0.176 -1.114,2.725 -1.114,4.527 0,0.893 0.271,1.523 0.271,0.63 0.638,0.63 0.381,0 0.959,-0.674 0.579,-0.674 1.004,-1.992 0.424,-1.319 0.424,-3.237 z m 12.504,-3.926 v 1.01 q -0.879,0.879 -1.333,1.275 -0.454,0.395 -1.245,0.806 0,1.333 -0.132,2.27 -0.131,0.938 -0.586,1.97 -0.454,1.033 -1.406,2.263 -0.937,1.216 -1.846,1.868 -0.908,0.652 -1.42,0.652 -0.572,0 -1.055,-0.938 -0.484,-0.937 -0.484,-2.329 0,-1.333 0.455,-2.812 0.454,-1.48 1.406,-3.823 -0.718,-0.938 -0.718,-1.861 0,-0.747 0.381,-1.142 0.381,-0.396 1.084,-0.718 0.513,-0.806 0.974,-1.37 0.461,-0.564 1.252,-1.501 1.524,-3.75 3.575,-7.324 0.571,-0.996 0.82,-1.341 0.249,-0.344 0.527,-0.344 0.249,0 0.44,0.366 0.19,0.366 0.19,0.952 0,0.718 -0.154,1.319 -0.153,0.6 -0.439,1.208 -0.286,0.608 -0.791,1.458 -0.505,0.849 -0.623,1.054 -0.732,1.29 -1.655,2.857 -0.923,1.567 -1.457,2.476 -0.535,0.908 -0.769,1.362 0.791,0.688 1.252,1.186 0.461,0.498 0.798,1.187 0.498,-0.191 0.909,-0.454 0.41,-0.264 0.966,-0.725 0.557,-0.462 1.084,-0.857 z m -4.38,3.926 -0.029,-0.308 q -0.41,0.044 -0.659,0.022 -0.249,-0.022 -0.579,-0.125 -0.329,-0.102 -0.512,-0.19 -0.183,-0.088 -0.403,-0.176 -1.113,2.725 -1.113,4.527 0,0.893 0.271,1.523 0.271,0.63 0.637,0.63 0.381,0 0.959,-0.674 0.579,-0.674 1.004,-1.992 0.424,-1.319 0.424,-3.237 z m 4.295,-3.516 v -0.352 q 3.78,-3.984 5.2,-5.581 0.323,-1.801 1.553,-1.801 0.308,0 0.659,0.175 l 0.088,0.279 q -0.058,0.175 -0.058,0.498 0,0.278 0.212,1.032 0.212,0.755 0.33,1.267 0.117,0.513 0.117,1.158 0,0.966 -0.44,1.853 -0.439,0.886 -1.274,1.699 -0.835,0.813 -2.153,1.663 0.527,0.087 0.835,0.087 0.6,0 1.296,-0.3 0.696,-0.3 1.421,-0.806 0.725,-0.505 1.692,-1.311 v 0.982 q -1.875,1.831 -3.355,2.776 -1.479,0.945 -2.549,0.945 -1.376,0 -2.548,-1.172 -0.689,-0.703 -0.857,-1.348 -0.169,-0.644 -0.169,-1.743 z m 5.464,-2.241 -0.264,-2.139 q -0.908,1.025 -3.881,3.94 0.879,0.191 1.201,0.513 0.322,0.322 0.908,1.245 0.996,-0.41 1.531,-1.12 0.534,-0.711 0.534,-1.941 0,-0.147 -0.007,-0.264 -0.007,-0.117 -0.022,-0.234 z m 6.296,2.358 v 0.366 q 0,0.865 0.425,1.348 0.425,0.483 1.114,0.483 0.717,0 1.486,-0.337 0.769,-0.336 1.531,-0.893 0.762,-0.557 1.86,-1.494 v 0.893 q -1.655,1.992 -3.105,3.054 -1.45,1.063 -2.944,1.063 -1.304,0 -2.066,-1.011 -0.761,-1.011 -0.761,-2.769 0,-1.538 0.717,-2.79 0.718,-1.253 2.344,-2.644 1.113,-0.953 2.212,-1.436 1.099,-0.483 1.963,-0.483 0.688,0 1.091,0.315 0.403,0.315 0.403,0.944 0,0.923 -0.688,1.839 -0.689,0.915 -2.103,1.816 -1.413,0.901 -3.479,1.736 z m 0.147,-0.952 q 1.318,-0.513 2.256,-1.274 0.937,-0.762 1.384,-1.458 0.447,-0.696 0.447,-1.018 0,-0.337 -0.308,-0.337 -0.263,0 -0.857,0.337 -0.593,0.337 -1.201,0.879 -0.608,0.542 -1.091,1.274 -0.484,0.733 -0.63,1.597 z m 11.41,-7.178 h 0.63 q 0.776,-1.391 1.406,-1.97 0.63,-0.579 1.435,-0.579 0.806,0 0.806,0.367 0,0.175 -0.63,0.952 -0.63,0.776 -0.952,1.303 0.498,0.059 0.886,0.103 0.388,0.044 0.608,0.073 -0.835,1.553 -2.095,3.179 -0.41,-0.029 -0.688,-0.051 -0.278,-0.022 -0.564,-0.044 -0.286,-0.022 -0.696,-0.052 -0.791,1.275 -1.326,2.278 -0.534,1.004 -0.82,1.839 -0.286,0.835 -0.286,1.582 0,1.01 0.806,1.01 0.557,0 1.458,-0.593 0.901,-0.593 2.409,-1.824 v 0.982 q -3.955,4.292 -5.844,4.292 -0.66,0 -1.062,-0.513 -0.403,-0.513 -0.403,-1.318 0,-0.542 0.227,-1.289 0.227,-0.747 0.813,-2.256 -0.205,0.176 -0.388,0.344 -0.183,0.169 -0.337,0.308 -0.154,0.139 -0.33,0.293 -0.176,0.154 -0.351,0.315 v -1.011 q 1.538,-1.289 3.72,-4.526 -0.219,-0.015 -0.41,-0.022 -0.19,-0.008 -0.454,-0.008 -0.864,0 -1.289,0.117 -0.176,0.044 -0.33,0.096 -0.153,0.051 -0.212,0.051 -0.059,0 -0.059,-0.088 0,-0.483 0.601,-1.45 0.483,-0.82 0.915,-1.216 0.433,-0.395 1.055,-0.535 0.623,-0.139 1.751,-0.139 z m 16.665,3.516 4.467,-6.665 q -1.523,0.058 -3.208,0.439 -1.684,0.381 -2.885,0.813 -1.201,0.432 -2.146,0.821 -0.945,0.388 -1.355,0.549 -0.103,0 -0.205,-0.073 -0.103,-0.074 -0.103,-0.176 0,-0.117 0.681,-1.436 0.681,-1.318 1.604,-2.827 5.127,-1.831 9.053,-1.831 4.541,0 6.299,1.934 0.63,0.674 0.974,1.662 0.344,0.989 0.344,1.956 0,2.197 -0.915,3.992 -0.916,1.794 -2.615,3.112 -1.699,1.319 -3.999,2.014 -2.3,0.696 -5.039,0.696 -0.484,0 -1.978,-0.175 l -1.318,2.402 q 0.205,0.307 0.205,0.498 0,0.454 -0.205,0.762 -0.293,0.439 -0.776,1.157 -0.484,0.718 -0.652,0.952 -0.169,0.234 -0.381,0.41 -0.213,0.176 -0.418,0.176 -0.424,0 -0.542,-0.256 -0.117,-0.257 -0.117,-0.711 0,-0.644 0.637,-2.043 0.638,-1.399 1.927,-3.714 -0.689,-0.263 -1.07,-0.688 -0.381,-0.425 -0.381,-0.835 0,-0.908 1.04,-1.685 1.041,-0.776 3.077,-1.23 z m 1.523,0.395 -0.835,1.407 q 0.557,0.029 0.989,0.058 0.432,0.029 0.725,0.029 2.563,0 4.446,-0.688 1.882,-0.688 2.988,-1.707 1.106,-1.018 1.604,-2.043 0.498,-1.025 0.498,-1.714 0,-0.952 -0.762,-1.494 -0.761,-0.542 -2.19,-0.74 -1.428,-0.198 -3.684,-0.198 0.03,0.162 0.03,0.396 0,0.762 -0.806,2.007 l -2.549,3.999 1.919,-0.22 q 0.235,0 0.235,0.22 0,0.19 -0.381,0.264 z m 11.192,4.82 v -0.952 q 0.791,-0.938 1.201,-1.597 -0.469,-0.161 -0.681,-0.396 -0.212,-0.234 -0.212,-0.703 0,-0.527 0.439,-1.333 0.44,-0.805 1.084,-1.509 0.645,-0.703 1.172,-0.908 0.205,-0.102 0.395,-0.102 0.293,0 0.293,0.278 0,0.249 -0.454,1.011 3.018,-0.469 3.809,-0.469 0.307,0 0.425,0.059 0.249,0.131 0.41,0.615 0.161,0.483 0.161,0.967 0,0.307 -0.271,0.666 -0.271,0.359 -0.93,1.047 -0.777,0.835 -1.304,1.817 -0.527,0.981 -0.527,1.479 0,0.689 0.849,0.689 0.894,0 3.106,-1.817 v 0.982 q -1.216,1.274 -2.007,2.007 -0.791,0.732 -1.465,1.164 -0.674,0.432 -1.201,0.432 -0.615,0 -1.025,-0.564 -0.411,-0.564 -0.411,-1.633 0,-0.63 0.323,-1.435 0.322,-0.806 0.945,-1.751 0.622,-0.945 1.398,-1.882 -0.41,0.088 -0.922,0.183 -0.513,0.095 -1.084,0.198 -0.572,0.102 -0.879,0.161 -0.909,1.816 -2.637,3.296 z m 14.911,-7.676 q -0.367,0 -0.696,-0.278 -0.33,-0.279 -0.33,-0.704 0,-0.644 0.616,-1.435 0.615,-0.791 1.274,-0.791 0.439,0 0.732,0.271 0.293,0.271 0.293,0.784 0,0.629 -0.6,1.391 -0.601,0.762 -1.289,0.762 z m 0.996,6.548 v 1.069 q -1.421,1.831 -2.652,2.761 -1.23,0.93 -2.094,0.93 -1.202,0 -1.787,-1.259 -0.586,-1.26 -0.586,-2.754 0,-0.571 0.117,-1.092 0.117,-0.52 0.278,-0.856 0.161,-0.337 0.601,-1.055 2.08,-3.237 3.808,-3.237 0.894,0 0.894,0.688 0,0.469 -0.579,1.465 -0.578,0.996 -1.032,1.421 -1.275,1.23 -1.663,1.714 -0.388,0.483 -0.388,1.098 0,0.528 0.395,0.879 0.396,0.352 1.026,0.352 0.688,0 1.516,-0.506 0.827,-0.505 2.146,-1.618 z m 9.735,-2.652 q -2.578,2.871 -2.578,3.999 0,0.63 0.513,0.63 0.424,0 1.106,-0.447 0.681,-0.446 2.131,-1.589 v 1.011 q -2.08,2.051 -3.193,2.959 -1.114,0.908 -1.817,0.908 -1.201,0 -1.201,-1.582 0,-0.469 0.146,-0.923 0.147,-0.454 0.403,-0.945 0.257,-0.49 0.784,-1.406 0.527,-0.915 1.216,-2.073 -0.835,0.425 -2.095,1.685 -0.82,0.791 -1.392,1.501 -0.571,0.711 -1.223,1.582 -0.652,0.872 -0.952,1.172 -0.3,0.301 -0.608,0.301 -0.468,0 -0.864,-0.982 -0.395,-0.981 -0.395,-2.285 0,-0.806 0.183,-1.26 0.183,-0.454 0.725,-1.289 1.01,-1.553 1.743,-2.278 0.732,-0.725 1.406,-0.725 0.469,0 0.755,0.161 0.285,0.162 0.285,0.498 0,0.147 -0.088,0.308 -0.088,0.161 -0.197,0.293 -0.11,0.132 -0.462,0.513 -2.314,2.563 -2.314,3.325 0,0.425 0.278,0.425 0.176,0 0.681,-0.564 0.505,-0.564 1.304,-1.48 0.798,-0.915 1.889,-1.911 1.092,-0.996 2.483,-1.919 0.777,-0.542 1.289,-0.542 0.235,0 0.462,0.644 0.227,0.645 0.227,1.304 0,0.322 -0.63,0.981 z m 6.225,-4.951 h 0.63 q 0.776,-1.391 1.406,-1.97 0.63,-0.579 1.436,-0.579 0.806,0 0.806,0.367 0,0.175 -0.63,0.952 -0.63,0.776 -0.952,1.303 0.498,0.059 0.886,0.103 0.388,0.044 0.608,0.073 -0.835,1.553 -2.095,3.179 -0.41,-0.029 -0.689,-0.051 -0.278,-0.022 -0.564,-0.044 -0.285,-0.022 -0.695,-0.052 -0.791,1.275 -1.326,2.278 -0.535,1.004 -0.82,1.839 -0.286,0.835 -0.286,1.582 0,1.01 0.806,1.01 0.556,0 1.457,-0.593 0.901,-0.593 2.41,-1.824 v 0.982 q -3.955,4.292 -5.845,4.292 -0.659,0 -1.062,-0.513 -0.403,-0.513 -0.403,-1.318 0,-0.542 0.227,-1.289 0.227,-0.747 0.813,-2.256 -0.205,0.176 -0.388,0.344 -0.183,0.169 -0.337,0.308 -0.154,0.139 -0.329,0.293 -0.176,0.154 -0.352,0.315 v -1.011 q 1.538,-1.289 3.721,-4.526 -0.22,-0.015 -0.41,-0.022 -0.191,-0.008 -0.454,-0.008 -0.865,0 -1.29,0.117 -0.175,0.044 -0.329,0.096 -0.154,0.051 -0.212,0.051 -0.059,0 -0.059,-0.088 0,-0.483 0.6,-1.45 0.484,-0.82 0.916,-1.216 0.432,-0.395 1.055,-0.535 0.622,-0.139 1.75,-0.139 z m 4.701,8.13 v 0.366 q 0,0.865 0.425,1.348 0.424,0.483 1.113,0.483 0.718,0 1.487,-0.337 0.769,-0.336 1.53,-0.893 0.762,-0.557 1.861,-1.494 v 0.893 q -1.655,1.992 -3.106,3.054 -1.45,1.063 -2.944,1.063 -1.304,0 -2.065,-1.011 -0.762,-1.011 -0.762,-2.769 0,-1.538 0.718,-2.79 0.717,-1.253 2.343,-2.644 1.114,-0.953 2.212,-1.436 1.099,-0.483 1.963,-0.483 0.689,0 1.091,0.315 0.403,0.315 0.403,0.944 0,0.923 -0.688,1.839 -0.689,0.915 -2.102,1.816 -1.414,0.901 -3.479,1.736 z m 0.146,-0.952 q 1.319,-0.513 2.256,-1.274 0.938,-0.762 1.384,-1.458 0.447,-0.696 0.447,-1.018 0,-0.337 -0.307,-0.337 -0.264,0 -0.857,0.337 -0.594,0.337 -1.202,0.879 -0.607,0.542 -1.091,1.274 -0.483,0.733 -0.63,1.597 z m 6.122,1.553 v -0.952 q 0.791,-0.938 1.201,-1.597 -0.469,-0.161 -0.681,-0.396 -0.212,-0.234 -0.212,-0.703 0,-0.527 0.439,-1.333 0.439,-0.805 1.084,-1.509 0.645,-0.703 1.172,-0.908 0.205,-0.102 0.395,-0.102 0.293,0 0.293,0.278 0,0.249 -0.454,1.011 3.018,-0.469 3.809,-0.469 0.307,0 0.425,0.059 0.249,0.131 0.41,0.615 0.161,0.483 0.161,0.967 0,0.307 -0.271,0.666 -0.271,0.359 -0.93,1.047 -0.777,0.835 -1.304,1.817 -0.527,0.981 -0.527,1.479 0,0.689 0.849,0.689 0.894,0 3.106,-1.817 v 0.982 q -1.216,1.274 -2.007,2.007 -0.791,0.732 -1.465,1.164 -0.674,0.432 -1.201,0.432 -0.615,0 -1.025,-0.564 -0.411,-0.564 -0.411,-1.633 0,-0.63 0.323,-1.435 0.322,-0.806 0.944,-1.751 0.623,-0.945 1.399,-1.882 -0.41,0.088 -0.922,0.183 -0.513,0.095 -1.084,0.198 -0.572,0.102 -0.879,0.161 -0.909,1.816 -2.637,3.296 z m 8.846,-0.718 v -0.352 q 3.779,-3.984 5.2,-5.581 0.323,-1.801 1.553,-1.801 0.308,0 0.659,0.175 l 0.088,0.279 q -0.058,0.175 -0.058,0.498 0,0.278 0.212,1.032 0.212,0.755 0.33,1.267 0.117,0.513 0.117,1.158 0,0.966 -0.44,1.853 -0.439,0.886 -1.274,1.699 -0.835,0.813 -2.153,1.663 0.527,0.087 0.835,0.087 0.6,0 1.296,-0.3 0.696,-0.3 1.421,-0.806 0.725,-0.505 1.692,-1.311 v 0.982 q -1.875,1.831 -3.355,2.776 -1.479,0.945 -2.549,0.945 -1.377,0 -2.548,-1.172 -0.689,-0.703 -0.857,-1.348 -0.169,-0.644 -0.169,-1.743 z m 5.464,-2.241 -0.264,-2.139 q -0.908,1.025 -3.881,3.94 0.878,0.191 1.201,0.513 0.322,0.322 0.908,1.245 0.996,-0.41 1.531,-1.12 0.534,-0.711 0.534,-1.941 0,-0.147 -0.007,-0.264 -0.007,-0.117 -0.022,-0.234 z"
       style="fill:url(#color-0);stroke-miterlimit:1;paint-order:markers"
       id="path1" />
    <path
       d="m 327.165,180.422 v 0.332 q 0,0.205 -0.081,0.258 -0.08,0.054 -0.591,0.289 -0.51,0.234 -0.979,0.551 0.181,-0.263 0.33,-0.39 0.149,-0.127 0.403,-0.318 -0.22,-0.088 -0.611,-0.088 -0.605,0 -1.306,0.24 -0.7,0.239 -1.191,0.571 -0.491,0.332 -0.491,0.557 0,0.117 0.149,0.192 0.149,0.076 0.479,0.118 0.329,0.041 0.822,0.056 0.494,0.014 1.216,0.014 0.528,0 0.679,0.04 0.151,0.039 0.151,0.18 0,0.181 -0.178,0.413 -0.178,0.232 -0.471,0.276 -0.454,0.073 -0.723,0.124 -0.268,0.051 -0.637,0.174 -0.369,0.122 -0.818,0.351 -0.669,0.352 -1.045,0.713 -0.376,0.361 -0.376,0.64 0,0.239 0.269,0.373 0.268,0.134 0.771,0.134 1.734,0 3.531,-1.557 0.009,0.478 -0.105,0.842 -0.115,0.364 -0.467,0.696 -0.293,0.278 -0.857,0.532 -0.564,0.254 -1.23,0.405 -0.667,0.152 -1.253,0.152 -0.678,0 -1.123,-0.325 -0.444,-0.325 -0.444,-0.862 0,-0.39 0.215,-0.776 0.215,-0.386 0.659,-0.74 0.444,-0.354 1.126,-0.642 0.681,-0.288 1.569,-0.454 0.127,-0.024 0.127,-0.078 0,-0.059 -0.149,-0.071 -0.149,-0.012 -0.546,-0.017 -0.398,-0.005 -0.701,-0.034 -0.303,-0.03 -0.64,-0.127 -0.346,-0.108 -0.534,-0.376 -0.188,-0.269 -0.188,-0.596 0,-0.42 0.302,-0.845 0.303,-0.424 0.855,-0.766 0.552,-0.342 1.335,-0.55 0.784,-0.207 1.717,-0.207 0.537,0 0.749,0.061 0.212,0.061 0.247,0.161 0.034,0.1 0.034,0.374 z m 4.766,4.741 q -0.122,-0.225 -0.366,-0.405 -0.245,-0.181 -0.55,-0.291 -0.305,-0.11 -0.637,-0.164 -0.986,-0.146 -1.841,-0.639 -0.073,-0.039 -0.156,-0.166 -0.083,-0.127 -0.083,-0.244 0,-0.43 0.144,-0.862 0.144,-0.432 0.369,-0.676 0.361,-0.406 1.301,-0.708 0.94,-0.303 2.117,-0.303 0.703,0 1.086,0.107 0.383,0.108 0.383,0.332 0,0.367 -0.1,0.567 -0.1,0.2 -0.215,0.266 -0.114,0.066 -0.402,0.178 -0.308,0.107 -0.535,0.225 -0.227,0.117 -0.388,0.224 -0.161,0.108 -0.2,0.108 -0.049,0 -0.049,-0.039 0,-0.083 0.173,-0.252 0.173,-0.168 0.427,-0.295 0.269,-0.142 0.269,-0.181 0,-0.063 -0.298,-0.063 -0.903,0 -1.67,0.161 -0.766,0.161 -1.208,0.425 -0.442,0.263 -0.442,0.537 0,0.171 0.183,0.241 0.183,0.071 0.808,0.237 0.625,0.166 1.118,0.381 0.708,0.303 1.05,0.63 0.342,0.327 0.342,0.732 0,0.279 -0.135,0.559 -0.134,0.281 -0.393,0.516 -0.258,0.234 -0.595,0.385 -0.288,0.122 -0.725,0.23 -0.437,0.107 -0.948,0.168 -0.51,0.061 -0.974,0.061 -0.854,0 -1.374,-0.161 -0.52,-0.161 -0.52,-0.488 0,-0.147 0.175,-0.457 0.176,-0.31 0.415,-0.417 0.21,-0.083 0.406,-0.095 0.195,-0.013 0.195,0.046 0,0.015 -0.015,0.029 -0.014,0.015 -0.034,0.025 -0.019,0.01 -0.039,0.019 -0.097,0.039 -0.159,0.061 -0.061,0.022 -0.097,0.044 -0.037,0.022 -0.037,0.061 0,0.103 1.011,0.103 0.879,0 1.44,-0.064 0.562,-0.063 0.992,-0.229 0.429,-0.166 0.781,-0.459 z m 5.322,0.439 0.161,0.122 q -0.064,0.137 -0.122,0.24 -0.059,0.102 -0.142,0.249 -0.083,0.146 -0.127,0.219 -0.366,0.64 -0.688,0.64 -0.137,0 -0.235,-0.107 -0.097,-0.108 -0.097,-0.293 0,-0.264 0.188,-0.723 0.188,-0.459 0.581,-1.13 0.393,-0.672 0.989,-1.521 0.595,-0.85 1.342,-1.792 -0.429,-0.064 -1.02,-0.064 -0.679,0 -1.511,0.152 -0.833,0.151 -1.451,0.349 -0.617,0.197 -0.617,0.29 0,0.034 0.024,0.047 0.025,0.012 0.081,0.019 0.056,0.007 0.144,0.017 0.571,0.078 0.571,0.176 0,0.049 -0.249,0.046 -0.249,-0.002 -0.601,-0.002 -0.278,0 -0.402,-0.022 -0.125,-0.022 -0.166,-0.083 -0.042,-0.061 -0.042,-0.188 0,-0.083 0.049,-0.361 0.093,-0.518 0.286,-0.83 0.192,-0.313 0.59,-0.511 0.398,-0.197 1.097,-0.315 1.171,-0.2 1.938,-0.2 0.566,0 0.894,0.047 0.327,0.046 0.481,0.134 0.153,0.088 0.195,0.173 0.041,0.086 0.11,0.296 l 0.151,0.449 q 0.015,0.044 0.025,0.071 0.009,0.026 0.017,0.056 0.007,0.029 0.007,0.053 0,0.191 -0.086,0.342 -0.085,0.152 -0.312,0.454 -0.227,0.303 -0.335,0.474 -1.259,2.046 -1.718,3.027 z m 2.254,-3.32 q 0,0.034 0.063,0.034 0.044,0 0.398,-0.058 0.354,-0.059 0.643,-0.064 -0.323,0.088 -0.555,0.178 -0.232,0.091 -0.478,0.201 -0.247,0.109 -0.354,0.146 -0.108,0.037 -0.186,0.037 -0.249,0 -0.249,-0.323 0,-0.83 0.42,-1.167 0.171,-0.136 0.549,-0.324 0.379,-0.188 0.855,-0.357 0.476,-0.168 1.047,-0.29 0.572,-0.122 1.128,-0.122 0.572,0 1.05,0.166 0.479,0.166 0.801,0.466 0.322,0.3 0.495,0.735 0.174,0.434 0.174,0.976 0,0.826 -0.476,1.602 -0.476,0.776 -1.27,1.37 -0.793,0.593 -1.789,0.94 -0.996,0.346 -1.963,0.346 -0.181,0 -0.286,-0.039 -0.105,-0.039 -0.149,-0.154 -0.044,-0.114 -0.044,-0.339 0,-0.278 0.044,-0.454 0.044,-0.176 0.147,-0.405 0.703,-1.558 2.446,-3.921 -0.352,0.039 -0.772,0.149 -0.419,0.109 -0.795,0.241 -0.376,0.132 -0.635,0.254 -0.259,0.122 -0.259,0.176 z m 2.603,-0.85 q 0,0.01 0.019,0.11 0.02,0.1 0.02,0.174 0,0.112 -0.115,0.315 -0.115,0.202 -0.452,0.72 -0.337,0.517 -0.576,0.908 -0.239,0.391 -0.566,1.006 -0.103,0.195 -0.142,0.263 -0.039,0.069 -0.125,0.225 -0.085,0.156 -0.124,0.269 -0.039,0.112 -0.039,0.171 0,0.127 0.139,0.178 0.139,0.051 0.398,0.051 0.664,0 1.406,-0.242 0.742,-0.241 1.394,-0.671 0.652,-0.43 1.043,-0.972 0.39,-0.542 0.39,-1.133 0,-0.673 -0.493,-1.037 -0.493,-0.364 -1.435,-0.364 -0.396,0 -0.742,0.029 z m 4.203,5.162 q -0.239,0 -0.239,-0.249 0,-0.181 0.154,-0.376 0.154,-0.196 0.366,-0.335 0.212,-0.139 0.366,-0.144 0.154,-0.005 0.154,0.176 0,0.141 -0.134,0.364 -0.134,0.222 -0.327,0.393 -0.193,0.171 -0.34,0.171 z m 0.972,-2.1 q -0.117,0 -0.178,-0.081 -0.061,-0.08 -0.061,-0.207 0,-0.152 0.149,-0.371 0.149,-0.22 0.354,-0.381 0.205,-0.161 0.346,-0.161 0.103,0 0.161,0.066 0.059,0.066 0.059,0.173 0,0.132 -0.142,0.371 -0.141,0.239 -0.334,0.415 -0.193,0.176 -0.354,0.176 z m 5.285,-2.588 v -0.4 q 0.175,-0.157 0.356,-0.303 0.181,-0.147 0.403,-0.317 0.222,-0.171 0.459,-0.328 0.237,-0.156 0.539,-0.322 0.269,0.391 0.269,0.747 0,0.195 -0.083,0.435 -0.083,0.239 -0.227,0.547 -0.144,0.307 -0.359,0.771 -0.576,1.275 -0.862,2.102 -0.285,0.828 -0.285,1.126 0,0.024 0.034,0.19 0.034,0.166 0.034,0.249 0,0.142 -0.081,0.151 -0.08,0.01 -0.227,-0.058 -0.376,-0.186 -0.503,-0.352 -0.127,-0.166 -0.127,-0.429 0,-0.474 0.347,-1.47 0.176,-0.503 0.41,-1.001 0.235,-0.498 0.52,-1.008 0.286,-0.511 0.54,-0.94 -0.552,0.229 -1.157,0.61 z m 5.611,1.099 q -0.513,0.415 -0.884,0.683 -0.371,0.269 -0.666,0.418 -0.296,0.149 -0.53,0.149 -0.171,0 -0.422,-0.242 -0.252,-0.242 -0.43,-0.598 -0.178,-0.357 -0.178,-0.689 0,-0.61 0.617,-1.259 0.618,-0.65 1.438,-1.087 0.821,-0.437 1.284,-0.437 0.245,0 0.459,0.161 0.215,0.161 0.337,0.357 0.122,0.195 0.122,0.302 0,0.157 -0.21,0.379 -0.209,0.222 -0.461,0.403 -0.251,0.18 -0.32,0.18 -0.029,0 -0.029,-0.039 0,-0.058 0.283,-0.341 0.156,-0.157 0.156,-0.259 0,-0.064 -0.058,-0.064 -0.098,0 -0.498,0.166 -0.401,0.166 -0.86,0.445 -0.459,0.278 -0.83,0.649 -0.278,0.288 -0.42,0.601 -0.141,0.312 -0.141,0.473 0,0.23 0.268,0.23 0.157,0 0.486,-0.132 0.33,-0.132 0.694,-0.357 0.363,-0.224 0.612,-0.473 0.528,-0.523 0.735,-0.681 0.208,-0.159 0.374,-0.159 0.117,0 0.197,0.061 0.081,0.061 0.081,0.159 0,0.034 -0.298,0.512 -0.835,1.368 -1.228,1.993 -0.393,0.625 -0.732,1.106 -0.34,0.48 -0.65,0.759 -0.31,0.278 -0.549,0.278 -0.142,0 -0.142,-0.19 0,-0.157 0.198,-0.542 0.198,-0.386 0.491,-0.376 0.581,-0.816 0.932,-1.35 0.352,-0.535 0.772,-1.189 z m 3.046,2.9 0.073,0.088 q -0.43,0.332 -0.749,0.505 -0.32,0.174 -0.545,0.174 -0.195,0 -0.295,-0.127 -0.1,-0.127 -0.1,-0.342 0,-0.405 0.376,-1.155 0.376,-0.749 1.169,-1.68 0.793,-0.93 1.941,-1.804 -0.625,-0.088 -1.26,-0.088 -0.537,0 -0.849,0.074 -0.313,0.073 -0.601,0.205 -0.103,0.044 -0.227,0.127 -0.125,0.083 -0.144,0.083 -0.044,0 -0.105,-0.052 -0.061,-0.051 -0.061,-0.119 0,-0.103 0.21,-0.381 0.21,-0.278 0.317,-0.469 0.142,-0.244 0.293,-0.342 0.122,-0.063 0.701,-0.127 0.578,-0.063 1.428,-0.063 0.137,0 0.33,0.007 0.193,0.008 0.415,0.025 0.222,0.017 0.324,0.022 0.098,0.205 0.149,0.439 0.052,0.234 0.052,0.381 0,0.132 -0.042,0.205 -0.041,0.073 -0.159,0.171 -0.229,0.205 -0.481,0.439 -0.251,0.235 -0.583,0.591 -0.332,0.357 -0.637,0.755 -0.305,0.398 -0.608,0.876 -0.303,0.474 -0.467,0.862 -0.163,0.388 -0.163,0.647 0,0.132 0.088,0.132 0.093,0 0.21,-0.059 z m 3.579,-3.799 q -0.141,-0.083 -0.2,-0.18 -0.059,-0.098 -0.059,-0.323 0,-0.312 0.328,-0.566 0.327,-0.254 0.922,-0.398 0.596,-0.144 1.333,-0.144 0.787,0 1.182,0.288 0.396,0.288 0.396,0.85 0,0.332 -0.149,0.588 -0.149,0.256 -0.491,0.471 -0.381,0.235 -2.559,0.684 0.66,0.058 1.119,0.18 0.459,0.122 0.73,0.381 0.271,0.259 0.271,0.699 0,0.478 -0.418,0.952 -0.417,0.473 -1.165,0.778 -0.747,0.306 -1.66,0.306 -0.654,0 -1.015,-0.203 -0.362,-0.203 -0.362,-0.515 0,-0.181 0.118,-0.383 0.117,-0.203 0.278,-0.35 0.161,-0.146 0.273,-0.146 0.069,0 0.069,0.049 0,0.034 -0.049,0.132 -0.049,0.048 -0.049,0.107 0,0.117 0.227,0.2 0.227,0.083 0.584,0.083 0.488,0 0.947,-0.11 0.459,-0.109 0.823,-0.288 0.363,-0.178 0.576,-0.378 0.212,-0.2 0.212,-0.366 0,-0.337 -0.432,-0.459 -0.432,-0.122 -1.306,-0.122 -0.298,0 -0.574,0.051 -0.276,0.051 -0.266,0.051 -0.073,0 -0.073,-0.122 0,-0.19 0.105,-0.488 0.105,-0.298 0.246,-0.391 0.088,-0.058 0.682,-0.161 0.593,-0.102 1.02,-0.193 0.427,-0.09 1.018,-0.305 0.371,-0.142 0.557,-0.33 0.185,-0.188 0.185,-0.339 0,-0.381 -0.942,-0.381 -0.459,0 -0.894,0.056 -0.434,0.057 -0.681,0.137 -0.246,0.081 -0.246,0.154 0,0.063 0.051,0.102 0.051,0.039 0.102,0.059 0.052,0.02 0.169,0.059 0.029,0.009 0.058,0.041 0.03,0.032 0.03,0.071 0,0.137 -1.021,0.112 z"
       style="fill:#1b4ea0"
       id="path2" />
  </g>
</svg>
