<?xml version="1.0" encoding="utf-8"?>
<svg xmlns="http://www.w3.org/2000/svg" viewBox="322.218 30.78 622.933 154.96" xmlns:bx="https://boxy-svg.com" width="622.933px" height="154.96px"><defs><bx:export><bx:file format="svg" href="#object-0"/><bx:file format="svg" path="Untitled 2.svg"/></bx:export></defs><g id="Layer_1"><path fill="#1B1B1B" opacity="1.000000" stroke="none" d="M 825.496 71.767 C 825.678 73.971 826.111 75.866 825.782 77.617 C 823.023 92.317 819.644 106.919 817.43 121.697 C 815.842 132.292 815.035 143.126 815.25 153.826 C 815.396 161.071 825.399 164.951 832.58 161.091 C 839.438 157.404 845.062 153.051 845.16 143.674 C 845.216 138.326 848.111 132.896 850.315 127.754 C 850.961 126.246 853.621 125.602 855.358 124.561 C 855.921 126.335 857.352 128.378 856.9 129.837 C 854.805 136.597 852.618 143.4 849.583 149.767 C 847.965 153.159 846.965 156.384 849.301 158.948 C 851.034 160.851 854.661 162.583 856.958 162.097 C 861.851 161.061 867.27 159.522 870.944 156.393 C 876.946 151.281 881.766 144.771 887.003 138.78 C 889.514 135.908 891.592 132.619 894.316 129.984 C 896.959 127.427 900.266 127.664 901.626 131.279 C 907.689 147.39 920.116 155.506 936.005 159.555 C 936.705 159.733 937.279 160.407 938.001 160.914 C 934.695 163.169 921.644 159.872 914.185 153.452 C 907.683 147.856 902.586 140.626 896.324 133.498 C 895.335 134.647 893.533 136.645 891.839 138.73 C 887.434 144.149 883.649 150.24 878.533 154.864 C 873.837 159.108 868.059 162.641 862.156 164.946 C 854.27 168.026 848.802 165.262 844.486 157.617 C 841.957 159.426 839.481 161.252 836.948 162.995 C 831.027 167.069 824.779 167.211 818.48 164.107 C 812.394 161.109 811.114 155.491 811.058 149.371 C 811.018 144.964 811.05 140.556 811.05 135.729 C 793.59 150.229 787.18 151.234 780.836 140.121 C 774.45 144.633 767.169 145.445 759.57 144.579 C 758.885 144.501 757.886 144.808 757.445 145.303 C 750.122 153.528 740.742 151.076 731.932 149.677 C 729.877 149.351 727.303 145.324 726.967 142.741 C 726.441 138.688 730.128 136.789 733.124 135.011 C 733.593 135.381 734.063 135.752 734.532 136.123 C 733.482 137.411 732.496 138.76 731.368 139.977 C 728.749 142.803 729.263 145.797 732.548 146.708 C 739.799 148.719 747.163 148.67 754.218 145.003 C 748.343 134.695 738.187 127.419 722.079 121.889 C 722.079 131.754 722.063 141.441 722.103 151.128 C 722.107 152.11 722.743 153.15 722.557 154.055 C 722.366 154.986 721.528 155.784 720.973 156.64 C 720.326 156.012 719.328 155.498 719.082 154.74 C 713.503 137.495 707.903 120.256 702.577 102.933 C 701.467 99.325 701.073 95.398 700.966 91.602 C 700.773 84.71 704.473 80.167 711.22 79.852 C 724.51 79.231 735.872 84.784 745.971 92.759 C 750.126 96.04 749.018 100.962 743.794 103.691 C 737.906 106.767 731.603 109.041 725.617 111.943 C 724.12 112.669 722.487 114.334 722.175 115.83 C 721.985 116.742 723.995 118.536 725.37 119.272 C 729.33 121.389 733.552 123.013 737.514 125.126 C 741.466 127.234 745.227 129.7 749.068 132.007 C 757.679 120.25 775.516 116.008 785.665 123.453 C 786.114 123.097 786.553 122.564 787.115 122.337 C 788.655 121.714 790.248 121.219 791.82 120.674 C 791.943 122.403 792.684 124.405 792.065 125.806 C 790.671 128.958 788.382 131.706 786.894 134.827 C 785.979 136.746 784.93 139.494 785.666 141.055 C 786.4 142.61 789.277 143.905 791.238 143.94 C 793.732 143.984 796.65 143.22 798.686 141.8 C 806.326 136.472 811.771 129.322 813.057 119.904 C 814.968 105.913 816.382 91.854 817.984 77.82 C 818.192 76.001 817.972 74.083 818.47 72.36 C 819.062 70.315 820.217 68.433 821.128 66.481 C 822.55 68.117 823.971 69.754 825.496 71.767 M 852.334 130.929 C 850.747 135.19 849.159 139.451 847.572 143.713 C 848.155 143.897 848.737 144.082 849.32 144.266 C 850.569 139.731 851.818 135.195 852.824 130.35 C 852.96 130.16 853.095 129.97 853.23 129.781 C 853.312 129.895 853.489 130.061 853.46 130.115 C 853.337 130.342 853.152 130.536 852.334 130.929 M 722.879 84.732 C 722.703 85.122 722.526 85.513 722.333 86.67 C 722.543 90.378 727.751 94.174 722.146 97.809 C 721.99 97.91 722.107 98.442 722.107 98.774 C 722.106 102.201 722.106 105.629 722.106 109.818 C 728.805 106.879 735.076 104.377 741.114 101.401 C 745.938 99.024 746.258 96.117 741.623 93.5 C 735.77 90.195 729.364 87.867 722.879 84.732 M 704.496 90.318 C 704.626 106.184 712.59 119.663 717.668 134.091 C 718.222 129.901 719.464 125.243 717.919 121.859 C 715.82 117.261 716.882 114.323 717.978 109.736 C 719.957 101.452 718.538 92.356 718.538 83.735 C 709.546 82.302 706.804 83.518 704.496 90.318 M 766.189 141.406 C 772.594 141.235 777.81 138.662 782.222 134.463 C 782.1 134.013 781.979 133.563 781.858 133.113 C 777.15 133.113 772.443 133.113 767.735 133.113 C 767.714 132.536 767.693 131.958 767.672 131.38 C 769.084 131.192 770.491 130.945 771.909 130.828 C 774.385 130.623 776.988 130.89 779.297 130.178 C 780.499 129.807 781.487 127.862 781.941 126.429 C 782.097 125.934 780.446 124.285 779.445 124.097 C 770.279 122.372 761.859 124.004 754.814 130.467 C 752.407 132.676 752.354 134.885 754.525 137.837 C 757.48 141.857 761.455 141.059 766.189 141.406 Z" style="stroke-width: 1;" id="object-0"/><path fill="#1B1B1B" opacity="1.000000" stroke="none" d="M 342.974 127.839 C 340.915 104.843 338.929 82.293 336.851 59.751 C 336.671 57.806 335.518 55.92 335.497 53.999 C 335.48 52.413 336.47 50.817 337.014 49.225 C 338.256 50.492 339.991 51.548 340.643 53.069 C 342.239 56.791 343.335 60.728 344.632 64.578 C 345.278 64.462 345.924 64.346 346.571 64.231 C 347.66 58.794 348.721 53.351 349.854 47.924 C 350.193 46.301 350.436 44.524 351.31 43.206 C 351.718 42.591 354.412 42.511 354.562 42.85 C 356.871 48.112 358.933 53.483 361.052 58.829 C 360.554 59.143 360.056 59.457 359.558 59.771 C 357.69 57.079 355.821 54.387 353.106 50.475 C 352.014 57.422 350.962 63.328 350.274 69.277 C 350.162 70.246 351.467 71.626 352.436 72.434 C 358.818 77.753 365.047 83.303 371.794 88.123 C 378.838 93.154 387.219 92.934 395.409 92.111 C 396.537 91.998 397.929 89.874 398.383 88.425 C 402.059 76.685 406.801 65.555 416.159 57.105 C 420.725 52.982 425.404 48.837 432.282 49.235 C 438.35 49.587 441.09 52.512 439.398 58.362 C 438.132 62.739 435.979 67.087 433.306 70.786 C 425.913 81.016 415.719 87.924 404.394 93.168 C 402.064 94.247 400.764 95.272 400.535 98.096 C 398.977 117.273 400.078 136.064 408.038 153.926 C 409.657 157.557 411.704 160.997 413.553 164.525 C 413.008 164.906 412.463 165.287 411.917 165.668 C 410.36 163.677 408.423 161.877 407.31 159.664 C 401.42 147.954 397.315 135.652 396.797 122.455 C 396.457 113.816 396.733 105.152 396.733 95.558 C 376.892 99.53 363.376 88.098 349.742 75.429 C 349.443 77.362 349.159 78.427 349.129 79.499 C 348.425 104.795 346.82 130.132 352.443 155.151 C 352.588 155.8 352.841 156.498 352.73 157.116 C 352.461 158.613 352.007 160.076 351.628 161.552 C 350.415 160.465 348.364 159.538 348.122 158.267 C 346.227 148.311 344.678 138.289 342.974 127.839 M 403.841 89.631 C 416.387 83.406 427.685 75.669 434.16 62.732 C 435.426 60.201 435.022 56.833 435.388 53.851 C 432.085 54.171 428.567 53.898 425.541 54.989 C 422.869 55.952 420.561 58.242 418.413 60.284 C 410.105 68.181 405.391 78.121 402.155 89.405 C 402.188 89.644 402.221 89.883 402.254 90.121 C 402.546 89.97 402.837 89.818 403.841 89.631 M 342.796 88.928 C 343.135 89.777 343.474 90.627 344.242 92.551 C 347.126 74.367 346.742 71.317 340.424 65.24 C 341.246 73.44 341.979 80.744 342.796 88.928 Z" style="stroke-width: 1;"/><path fill="#1B1B1B" opacity="1.000000" stroke="none" d="M 531.895 136.062 C 531.096 142.618 530.499 148.751 529.391 154.79 C 529.096 156.399 527.238 157.721 526.098 159.175 C 524.731 157.874 522.533 156.788 522.13 155.236 C 519.249 144.157 516.721 132.987 514.118 121.836 C 513.762 120.31 513.614 118.735 512.3 116.998 C 511.815 118.421 511.423 119.884 510.83 121.26 C 507.162 129.783 503.909 138.529 499.598 146.715 C 496.424 152.743 490.118 152.449 487.472 146.084 C 485.098 140.375 484.227 133.982 483.161 127.81 C 482.607 124.601 483.064 121.216 483.064 117.855 C 477.417 117.855 472.248 118.181 467.14 117.763 C 462.049 117.346 460.629 114.005 463.546 109.753 C 467.545 103.922 473.305 100.367 479.779 97.757 C 481.041 97.248 482.9 95.742 482.839 94.803 C 482.115 83.702 481.135 72.616 480.059 61.541 C 479.911 60.02 478.878 58.584 478.256 57.109 C 477.747 57.08 477.239 57.051 476.73 57.021 C 476.063 59.895 475.021 62.741 474.81 65.648 C 474.436 70.789 474.647 75.971 474.407 81.126 C 474.368 81.978 473.285 82.781 472.684 83.606 C 472.141 82.9 471.124 82.192 471.128 81.49 C 471.168 74.511 471.279 67.527 471.611 60.556 C 471.686 58.979 472.484 57.324 473.309 55.915 C 475.824 51.614 480.203 51.475 481.996 56.07 C 483.964 61.111 485.235 66.567 485.866 71.952 C 486.751 79.517 486.766 87.183 487.166 95.053 C 495.022 95.053 502.766 95.053 510.582 95.053 C 510.582 89.826 510.59 84.237 510.579 78.647 C 510.57 74.151 510.416 69.65 510.613 65.164 C 510.655 64.206 511.935 63.302 512.645 62.373 C 513.368 63.177 514.502 63.881 514.726 64.805 C 515.148 66.556 515.136 68.432 515.151 70.258 C 515.214 77.917 515.243 85.578 515.235 93.238 C 515.232 96.234 516.962 97.904 518.789 100.188 C 524.559 107.405 531.342 106.276 538.785 104.594 C 544.041 103.406 549.449 102.893 554.789 102.079 C 555.019 102.625 555.25 103.171 555.48 103.717 C 553.851 104.443 552.286 105.522 550.58 105.836 C 543.222 107.189 535.823 108.318 529.094 109.42 C 530.051 118.336 530.979 126.97 531.895 136.062 M 486.892 125.876 C 488.088 132.001 488.996 138.204 490.624 144.213 C 491.261 146.563 493.571 148.847 496.064 145.374 C 502.93 135.806 506.323 124.885 508.892 112.812 C 501.066 114.248 494 115.543 486.888 116.848 C 486.888 119.958 486.888 122.441 486.892 125.876 M 518.932 111.143 C 518.277 112.173 517.041 113.22 517.072 114.229 C 517.178 117.709 517.479 121.224 518.152 124.638 C 520.087 134.452 522.24 144.223 524.307 154.01 C 524.969 153.911 525.632 153.812 526.294 153.713 C 528.841 140.176 530.402 126.683 525.255 113.172 C 524.055 110.024 522.135 110.336 518.932 111.143 M 500.331 98.058 C 495.929 98.303 491.527 98.548 487.24 98.787 C 487.24 104.143 487.24 108.656 487.24 113.3 C 494.925 111.912 502.236 110.591 509.721 109.239 C 510.125 105.886 510.495 102.817 510.938 99.133 C 507.458 98.754 504.375 98.419 500.331 98.058 M 473.44 114.758 C 476.55 114.602 479.661 114.446 483.059 114.275 C 483.059 110.93 483.059 108.118 483.059 105.306 C 483.059 103.836 483.059 102.365 483.059 100.825 C 474.394 102.59 466.794 108.639 466.026 114.433 C 468.193 114.541 470.337 114.648 473.44 114.758 Z" style="stroke-width: 1;"/><path fill="#1B1B1B" opacity="1.000000" stroke="none" d="M 598.286 101.556 C 598.908 99.23 599.165 97.171 600.037 95.418 C 600.693 94.1 602.14 93.176 603.235 92.076 C 604.122 93.359 605.62 94.568 605.784 95.937 C 606.34 100.56 606.26 105.255 606.729 109.892 C 607.247 115.011 607.622 120.222 608.92 125.167 C 611.056 133.302 614.966 135.85 623.255 136.507 C 639.189 137.769 653.136 132.286 665.983 123.724 C 676.005 117.044 675.518 107.74 664.897 101.842 C 660.191 99.228 654.709 98 649.555 96.211 C 648.266 95.763 646.885 95.578 645.547 95.272 C 645.519 94.787 645.492 94.303 645.464 93.818 C 646.513 93.525 647.582 92.92 648.607 92.987 C 657.198 93.546 664.897 96.633 671.354 102.238 C 678.418 108.37 678.876 117.716 671.671 123.588 C 656.369 136.06 638.908 142.535 618.81 139.544 C 613.308 138.725 608.887 135.694 607.249 130.388 C 605.353 124.243 604.432 117.792 603.197 111.453 C 602.864 109.745 602.926 107.961 602.807 106.213 C 602.36 106.176 601.914 106.139 601.467 106.102 C 600.975 109.204 600.366 112.293 600.013 115.41 C 598.666 127.329 597.464 139.266 596.046 151.176 C 595.79 153.324 594.771 155.38 594.104 157.479 C 593.493 157.559 592.882 157.639 592.271 157.72 C 591.221 155.688 589.488 153.733 589.246 151.609 C 588.419 144.357 587.922 137.052 587.668 129.755 C 587.417 122.546 587.613 115.321 587.613 108.103 C 587.178 108 586.742 107.896 586.307 107.793 C 585.562 109.475 584.955 111.241 584.004 112.797 C 583.63 113.409 582.487 113.551 581.695 113.908 C 581.446 113.186 580.825 112.349 581.007 111.76 C 582.721 106.199 584.346 100.589 586.521 95.205 C 587.19 93.549 589.471 92.544 591.014 91.241 C 591.574 93.16 592.667 95.095 592.609 96.995 C 592.175 111.302 591.493 125.601 590.951 139.905 C 590.879 141.799 591.16 143.705 591.278 145.606 C 591.763 145.62 592.249 145.635 592.735 145.65 C 594.552 131.085 596.369 116.519 598.286 101.556 Z" style="stroke-width: 1;"/><path fill="#1B1B1B" opacity="1.000000" stroke="none" d="M 438.445 111.948 C 436.91 112.588 435.74 113.406 433.549 114.937 C 433.433 112.698 432.694 110.571 433.449 109.449 C 434.144 108.415 436.618 107.806 438 108.172 C 440.603 108.86 442.985 110.386 445.458 111.563 C 445.209 112.297 444.96 113.03 444.711 113.764 C 442.744 113.218 440.777 112.672 438.445 111.948 Z" style="stroke-width: 1;"/><path fill="#1B1B1B" opacity="1.000000" stroke="none" d="M 683.149 103.872 C 683.536 105.463 684.138 106.65 684.363 107.904 C 684.583 109.125 684.417 110.415 684.42 111.674 C 683.269 111.009 681.501 110.602 681.093 109.626 C 680.195 107.477 679.789 105.055 679.611 102.712 C 679.558 102.022 680.94 101.223 681.665 100.473 C 682.177 101.481 682.688 102.489 683.149 103.872 Z" style="stroke-width: 1;"/><path fill="#1B1B1B" opacity="1.000000" stroke="none" d="M 570.24 111.076 C 569.942 115.043 569.393 118.859 568.704 122.648 C 568.621 123.108 567.799 123.707 567.288 123.739 C 566.771 123.772 565.997 123.312 565.713 122.84 C 564.341 120.564 567.207 112.648 570.24 111.076 Z" style="stroke-width: 1;"/><path fill="#F3F3F3" opacity="1.000000" stroke="none" d="M 704.552 89.879 C 706.804 83.518 709.546 82.302 718.538 83.735 C 718.538 92.356 719.957 101.452 717.978 109.736 C 716.882 114.323 715.82 117.261 717.919 121.859 C 719.464 125.243 718.222 129.901 717.668 134.091 C 712.59 119.663 704.626 106.184 704.552 89.879 Z" style="stroke-width: 1;"/><path fill="#F3F3F3" opacity="1.000000" stroke="none" d="M 765.746 141.417 C 761.455 141.059 757.48 141.857 754.525 137.837 C 752.354 134.885 752.407 132.676 754.814 130.467 C 761.859 124.004 770.279 122.372 779.445 124.097 C 780.446 124.285 782.097 125.934 781.941 126.429 C 781.487 127.862 780.499 129.807 779.297 130.178 C 776.988 130.89 774.385 130.623 771.909 130.828 C 770.491 130.945 769.084 131.192 767.672 131.38 C 767.693 131.958 767.714 132.536 767.735 133.113 C 772.443 133.113 777.15 133.113 781.858 133.113 C 781.979 133.563 782.1 134.013 782.222 134.463 C 777.81 138.662 772.594 141.235 765.746 141.417 Z" style="stroke-width: 1;"/><path fill="#F3F3F3" opacity="1.000000" stroke="none" d="M 723.197 85.118 C 729.364 87.867 735.77 90.195 741.623 93.5 C 746.258 96.117 745.938 99.024 741.114 101.401 C 735.076 104.377 728.805 106.879 722.106 109.818 C 722.106 105.629 722.106 102.201 722.107 98.774 C 722.107 98.442 721.99 97.91 722.146 97.809 C 727.751 94.174 722.543 90.378 722.558 86.096 C 722.922 85.387 723.059 85.253 723.197 85.118 Z" style="stroke-width: 1;"/><path fill="#F3F3F3" opacity="1.000000" stroke="none" d="M 853.068 130.66 C 851.818 135.195 850.569 139.731 849.32 144.266 C 848.737 144.082 848.155 143.897 847.572 143.713 C 849.159 139.451 850.747 135.19 852.663 130.798 C 852.992 130.667 853.068 130.66 853.068 130.66 Z" style="stroke-width: 1;"/><path fill="#F3F3F3" opacity="1.000000" stroke="none" d="M 852.991 130.705 C 853.152 130.536 853.337 130.342 853.46 130.115 C 853.489 130.061 853.312 129.895 853.23 129.781 C 853.095 129.97 852.96 130.16 852.946 130.505 C 853.068 130.66 852.992 130.667 852.991 130.705 Z" style="stroke-width: 1;"/><path fill="#F3F3F3" opacity="1.000000" stroke="none" d="M 722.567 85.712 C 722.526 85.513 722.703 85.122 723.038 84.925 C 723.059 85.253 722.922 85.387 722.567 85.712 Z" style="stroke-width: 1;"/><path fill="#F3F3F3" opacity="1.000000" stroke="none" d="M 402.517 89.051 C 405.391 78.121 410.105 68.181 418.413 60.284 C 420.561 58.242 422.869 55.952 425.541 54.989 C 428.567 53.898 432.085 54.171 435.388 53.851 C 435.022 56.833 435.426 60.201 434.16 62.732 C 427.685 75.669 416.387 83.406 403.332 89.495 C 402.823 89.358 402.517 89.051 402.517 89.051 Z" style="stroke-width: 1;"/><path fill="#F3F3F3" opacity="1.000000" stroke="none" d="M 342.754 88.488 C 341.979 80.744 341.246 73.44 340.424 65.24 C 346.742 71.317 347.126 74.367 344.242 92.551 C 343.474 90.627 343.135 89.777 342.754 88.488 Z" style="stroke-width: 1;"/><path fill="#F3F3F3" opacity="1.000000" stroke="none" d="M 402.976 89.512 C 402.837 89.818 402.546 89.97 402.254 90.121 C 402.221 89.883 402.188 89.644 402.336 89.228 C 402.517 89.051 402.823 89.358 402.976 89.512 Z" style="stroke-width: 1;"/><path fill="#F3F3F3" opacity="1.000000" stroke="none" d="M 486.89 125.4 C 486.888 122.441 486.888 119.958 486.888 116.848 C 494 115.543 501.066 114.248 508.892 112.812 C 506.323 124.885 502.93 135.806 496.064 145.374 C 493.571 148.847 491.261 146.563 490.624 144.213 C 488.996 138.204 488.088 132.001 486.89 125.4 Z" style="stroke-width: 1;"/><path fill="#F3F3F3" opacity="1.000000" stroke="none" d="M 519.347 111.059 C 522.135 110.336 524.055 110.024 525.255 113.172 C 530.402 126.683 528.841 140.176 526.294 153.713 C 525.632 153.812 524.969 153.911 524.307 154.01 C 522.24 144.223 520.087 134.452 518.152 124.638 C 517.479 121.224 517.178 117.709 517.072 114.229 C 517.041 113.22 518.277 112.173 519.347 111.059 Z" style="stroke-width: 1;"/><path fill="#F3F3F3" opacity="1.000000" stroke="none" d="M 500.812 98.071 C 504.375 98.419 507.458 98.754 510.938 99.133 C 510.495 102.817 510.125 105.886 509.721 109.239 C 502.236 110.591 494.925 111.912 487.24 113.3 C 487.24 108.656 487.24 104.143 487.24 98.787 C 491.527 98.548 495.929 98.303 500.812 98.071 Z" style="stroke-width: 1;"/><path fill="#F3F3F3" opacity="1.000000" stroke="none" d="M 472.96 114.757 C 470.337 114.648 468.193 114.541 466.026 114.433 C 466.794 108.639 474.394 102.59 483.059 100.825 C 483.059 102.365 483.059 103.836 483.059 105.306 C 483.059 108.118 483.059 110.93 483.059 114.275 C 479.661 114.446 476.55 114.602 472.96 114.757 Z" style="stroke-width: 1;"/></g></svg>