<?xml version="1.0" encoding="UTF-8" standalone="no"?>
<!-- Created with Inkscape (http://www.inkscape.org/) -->

<svg
   version="1.1"
   id="svg1"
   width="512"
   height="512"
   viewBox="0 0 512 512"
   xmlns="http://www.w3.org/2000/svg"
   xmlns:svg="http://www.w3.org/2000/svg">
  <defs
     id="defs1" />
  <g
     id="g1">
    <path
       style="fill:#000000"
       d="m 229.5,488.83536 c -4.4,-0.49668 -13.625,-2.03238 -20.5,-3.41266 -6.875,-1.38029 -19.25,-4.75101 -27.5,-7.49049 -8.25,-2.73949 -21.34323,-8.10755 -29.09606,-11.92903 -7.75284,-3.82148 -19.08183,-10.27924 -25.17555,-14.35059 -6.09372,-4.07135 -14.6005,-10.25436 -18.90394,-13.74003 C 104.021,434.42689 95.983131,427.0581 90.462513,421.53749 84.941895,416.01687 77.573114,407.979 74.087444,403.67555 70.601774,399.37211 64.418759,390.86533 60.34741,384.77161 56.276062,378.67789 49.818295,367.3489 45.996818,359.59606 42.175341,351.84323 36.807281,338.75 34.067795,330.5 31.328309,322.25 27.966888,309.875 26.597972,303 25.229055,296.125 23.6345,286.13024 23.054516,280.78941 c -0.579984,-5.34082 -1.050824,-16.59082 -1.046311,-25 0.0045,-8.40917 0.457535,-19.33941 1.006716,-24.28941 0.549181,-4.95 1.90714,-13.82737 3.017687,-19.72748 1.110547,-5.90012 3.154697,-14.67512 4.542557,-19.5 C 31.963025,187.44763 34.737093,179 36.739761,173.5 c 2.002668,-5.5 6.601414,-15.85 10.219436,-23 3.618022,-7.15 9.560502,-17.50955 13.205512,-23.02123 3.64501,-5.51168 9.681738,-13.83668 13.414952,-18.5 3.733213,-4.66332 11.767513,-13.440733 17.854,-19.505354 C 97.520147,83.408794 107.9,74.400071 114.5,69.45403 c 6.6,-4.946041 16.5,-11.671385 22,-14.945208 5.5,-3.273824 15.625,-8.508031 22.5,-11.631572 6.875,-3.12354 17.45,-7.278077 23.5,-9.232305 6.05,-1.954227 13.75947,-4.247376 17.13216,-5.095886 3.37269,-0.84851 11.47269,-2.485299 18,-3.637309 7.90181,-1.394596 18.25324,-2.27622 30.97535,-2.638148 11.64874,-0.331392 23.55465,-0.08418 30.5,0.6333 6.26587,0.647286 17.01749,2.303308 23.89249,3.680049 6.875,1.37674 18.38379,4.46379 25.57509,6.860111 7.1913,2.396321 18.03268,6.569125 24.09197,9.272897 6.05928,2.703772 16.37549,8.133924 22.92491,12.067005 6.54941,3.93308 15.38533,9.771053 19.63535,12.973272 4.25003,3.202219 11.603,9.178664 16.33993,13.28099 C 416.30418,85.143552 424.01616,92.775 428.70498,98 c 4.68882,5.225 11.56061,13.55 15.27064,18.5 3.71003,4.95 9.80221,14.10457 13.53818,20.34348 3.73598,6.23891 9.03442,16.36391 11.77433,22.5 2.7399,6.13609 6.90241,17.00652 9.25002,24.15652 2.34761,7.15 5.19612,17.30676 6.33002,22.57057 1.1339,5.26381 2.75243,15.15037 3.59673,21.97014 0.84431,6.81976 1.5351,19.29324 1.5351,27.71884 0,8.4256 -0.47453,19.68904 -1.05452,25.02986 -0.57998,5.34083 -2.1767,15.31751 -3.54826,22.17041 -1.37157,6.8529 -4.49069,18.5529 -6.93138,26 -2.44069,7.4471 -6.84337,18.75495 -9.78373,25.12855 -2.94036,6.3736 -8.00049,16.0486 -11.24473,21.5 -3.24423,5.4514 -9.94654,15.31163 -14.89401,21.91163 -4.94748,6.6 -14.4062,17.41079 -21.01939,24.02398 -6.61319,6.61319 -17.42398,16.07191 -24.02398,21.01939 -6.6,4.94747 -16.38039,11.60213 -21.7342,14.78814 -5.35381,3.186 -14.53603,8.05775 -20.40492,10.82609 -5.86889,2.76835 -17.2385,7.22084 -25.2658,9.89443 -8.02729,2.67358 -20.22008,5.98108 -27.09508,7.35 -6.875,1.36892 -16.86976,2.96347 -22.21059,3.54345 -5.34082,0.57999 -17.26582,0.99566 -26.5,0.92372 C 245.05524,489.79727 233.9,489.33203 229.5,488.83536 Z m 52.64815,-42.39985 c 6.16931,-0.86047 16.19728,-2.84954 22.28439,-4.42016 6.0871,-1.57062 16.58382,-5.09626 23.32604,-7.83476 6.74222,-2.73849 16.41722,-7.29146 21.5,-10.1177 5.08278,-2.82624 13.51642,-8.15434 18.74142,-11.84022 5.52314,-3.8962 15.36505,-12.56665 23.51053,-20.71214 8.14549,-8.14548 16.81594,-17.98739 20.71214,-23.51053 3.68588,-5.225 9.01398,-13.65864 11.84022,-18.74142 2.82624,-5.08278 7.37921,-14.75778 10.1177,-21.5 2.7385,-6.74222 6.26414,-17.23894 7.83476,-23.32604 1.57062,-6.08711 3.55969,-16.11508 4.42016,-22.28439 C 447.29598,275.97885 448,264.21218 448,256 c 0,-8.21218 -0.70402,-19.97885 -1.56449,-26.14815 -0.86047,-6.16931 -2.86516,-16.26143 -4.45487,-22.42695 -1.58971,-6.16551 -4.54695,-15.42087 -6.57165,-20.56746 C 433.3843,181.71085 429.8111,173.675 427.46855,169 c -2.34255,-4.675 -7.0658,-12.775 -10.4961,-18 -3.43031,-5.225 -8.0547,-11.75 -10.27643,-14.5 -2.22172,-2.75 -8.12472,-9.20098 -13.11776,-14.33551 C 388.58522,117.02996 381.35,110.23075 377.5,107.05514 c -3.85,-3.17562 -11.59946,-8.787221 -17.22103,-12.470237 -5.62157,-3.683016 -15.29657,-9.104563 -21.5,-12.047882 -6.20343,-2.943319 -16.1138,-6.965089 -22.02303,-8.937267 -5.90923,-1.972178 -16.48423,-4.810751 -23.5,-6.307938 L 280.5,64.569656 H 256 231.5 l -12.75594,2.72216 c -7.01577,1.497187 -17.59077,4.33576 -23.5,6.307938 -5.90923,1.972178 -15.8196,5.993948 -22.02303,8.937267 -6.20343,2.943319 -15.87843,8.364866 -21.5,12.047882 -5.62157,3.683016 -13.37103,9.294617 -17.22103,12.470237 -3.85,3.17561 -11.08522,9.97482 -16.07826,15.10935 -4.99304,5.13453 -10.89715,11.58551 -13.12024,14.33551 -2.22309,2.75 -7.050454,9.59946 -10.727483,15.22103 -3.677029,5.62157 -9.093677,15.29657 -12.036996,21.5 -2.943319,6.20343 -6.965089,16.1138 -8.937267,22.02303 -1.972178,5.90923 -4.810751,16.48423 -6.307938,23.5 L 64.569656,231.5 v 24.5 24.5 l 2.72216,12.75594 c 1.497187,7.01577 4.33576,17.59077 6.307938,23.5 1.972178,5.90923 5.993948,15.8196 8.937267,22.02303 2.943319,6.20343 8.364866,15.87843 12.047882,21.5 3.683016,5.62157 9.285507,13.37103 12.449967,17.22103 3.16447,3.85 10.18868,11.3034 15.60935,16.5631 5.42068,5.25971 12.55578,11.59479 15.85578,14.07796 3.3,2.48316 8.73757,6.35815 12.08349,8.61108 3.34592,2.25293 10.32092,6.35738 15.5,9.121 5.17908,2.76361 14.06595,6.8651 19.74861,9.1144 5.68265,2.24931 15.46416,5.41289 21.73668,7.03019 6.27252,1.61731 15.79808,3.57619 21.1679,4.35308 5.36983,0.77688 17.06035,1.46127 25.97894,1.52085 9.87336,0.066 20.60278,-0.50356 27.43253,-1.45615 z M 206.01027,382.6845 c -1.91935,-0.61123 -5.30342,-2.92779 -7.52016,-5.14791 -2.27372,-2.27719 -4.56648,-5.83061 -5.26027,-8.15261 -0.67641,-2.26381 -1.22733,-5.18881 -1.22426,-6.5 0.003,-1.31119 0.49079,-4.18398 1.08383,-6.38398 l 1.07825,-4 48.15723,-48.255 48.15723,-48.25499 -47.1447,-47.24501 c -25.92958,-25.98475 -47.86306,-48.68515 -48.74106,-50.44534 -0.878,-1.76019 -1.58648,-5.58519 -1.5744,-8.5 0.0124,-2.9968 0.82416,-7.03778 1.86808,-9.29966 1.01537,-2.2 2.92413,-4.99102 4.24169,-6.20227 1.31756,-1.21125 4.06247,-2.89875 6.0998,-3.75 2.03733,-0.85125 5.98661,-1.54773 8.77619,-1.54773 3.06173,0 6.54245,0.76477 8.78212,1.92958 2.04135,1.06166 28.97685,27.26218 59.88404,58.25 l 56.17388,56.32042 1.1792,4.48965 c 0.64855,2.46931 0.91535,6.41457 0.59288,8.76724 -0.32247,2.35267 -1.23823,5.50732 -2.03503,7.01034 -0.7968,1.50303 -27.01685,28.2331 -58.26677,59.40017 L 223.5,381.8348 l -4,1.07702 c -2.2,0.59236 -5.35,1.0336 -7,0.98052 -1.65,-0.0531 -4.57038,-0.59661 -6.48973,-1.20784 z"
       id="path1" />
  </g>
</svg>
